<?xml version="1.0" encoding="UTF-8" standalone="no"?>
<!-- Created with Inkscape (http://www.inkscape.org/) -->

<svg
   xmlns:dc="http://purl.org/dc/elements/1.1/"
   xmlns:cc="http://creativecommons.org/ns#"
   xmlns:rdf="http://www.w3.org/1999/02/22-rdf-syntax-ns#"
   xmlns:svg="http://www.w3.org/2000/svg"
   xmlns="http://www.w3.org/2000/svg"
   xmlns:sodipodi="http://sodipodi.sourceforge.net/DTD/sodipodi-0.dtd"
   xmlns:inkscape="http://www.inkscape.org/namespaces/inkscape"
   width="128"
   height="166"
   id="svg2865"
   version="1.1"
   inkscape:version="0.47 r22583"
   sodipodi:docname="skull.svg">
  <defs
     id="defs2867">
    <inkscape:perspective
       sodipodi:type="inkscape:persp3d"
       inkscape:vp_x="0 : 24 : 1"
       inkscape:vp_y="0 : 1000 : 0"
       inkscape:vp_z="48 : 24 : 1"
       inkscape:persp3d-origin="24 : 16 : 1"
       id="perspective2873" />
    <inkscape:perspective
       id="perspective2843"
       inkscape:persp3d-origin="0.5 : 0.33333333 : 1"
       inkscape:vp_z="1 : 0.5 : 1"
       inkscape:vp_y="0 : 1000 : 0"
       inkscape:vp_x="0 : 0.5 : 1"
       sodipodi:type="inkscape:persp3d" />
  </defs>
  <sodipodi:namedview
     id="base"
     pagecolor="#ffffff"
     bordercolor="#666666"
     borderopacity="1.0"
     inkscape:pageopacity="0.0"
     inkscape:pageshadow="2"
     inkscape:zoom="3.3674699"
     inkscape:cx="26.731664"
     inkscape:cy="83"
     inkscape:current-layer="layer1"
     showgrid="true"
     inkscape:grid-bbox="true"
     inkscape:document-units="px"
     inkscape:window-width="1095"
     inkscape:window-height="906"
     inkscape:window-x="377"
     inkscape:window-y="24"
     inkscape:window-maximized="0" />
  <metadata
     id="metadata2870">
    <rdf:RDF>
      <cc:Work
         rdf:about="">
        <dc:format>image/svg+xml</dc:format>
        <dc:type
           rdf:resource="http://purl.org/dc/dcmitype/StillImage" />
        <dc:title />
      </cc:Work>
    </rdf:RDF>
  </metadata>
  <g
     id="layer1"
     inkscape:label="Layer 1"
     inkscape:groupmode="layer"
     transform="translate(0,118)">
    <g
       id="g2918"
       transform="matrix(3.4670979,0,0,3.4583335,-1.9598391,-118.10393)">
      <path
         id="rect3017"
         d="M 18.932678,0.04311703 C 12.874554,0.26811768 6.7650213,2.4796729 2.2960064,6.606133 c -2.62275807,3.994293 -1.7974953,9.057223 -0.5728319,13.37153 0.3548889,1.481468 0.926189,3.258208 -0.1391158,4.574471 -1.01499779,2.100017 -0.4240608,5.423701 2.0130945,6.178402 0.7421779,0.219927 1.8100753,-0.186436 2.340427,0.09001 -0.1331252,2.591562 0.9052183,5.066721 1.0888623,7.642504 0.5518669,1.102998 -0.1857547,3.81277 1.3906812,3.634101 0.8345538,-0.160408 1.6725373,0.0945 1.5875623,1.080194 0.539438,1.62468 0.517567,3.961031 2.528643,4.500825 3.014078,0.709904 6.19506,0.04925 9.271692,0.35188 1.856907,-0.114894 4.610349,0.209314 5.417351,-1.939443 0.539085,-1.259706 0.524342,-2.811434 1.243863,-3.952541 0.969305,0.259148 2.127881,-0.20811 2.209495,-1.333883 0.267614,-3.366939 1.309801,-6.811322 1.513912,-10.065469 1.328121,0.141821 2.920463,0.25132 3.739774,-1.047464 1.573898,-1.827299 1.088747,-4.457578 -0.139117,-6.317517 0.332858,-4.858289 2.94454,-9.869504 0.949264,-14.6972273 C 35.500927,5.1037604 31.772822,3.2655741 28.580802,1.7616127 25.532965,0.51195403 22.228534,-0.06629319 18.932678,0.04311703 z"
         style="fill:#000000;fill-opacity:1;stroke:none" />
      <rect
         y="33.148125"
         x="9.4926538"
         height="4.4598918"
         width="18.937386"
         id="rect3015"
         style="fill:#000000;fill-opacity:1;stroke:none" />
      <path
         sodipodi:nodetypes="ccccccccccccscc"
         id="path2994"
         d="m 9.460591,28.447391 c -1.5243867,0.437709 -1.5990687,1.455302 -1.30933,2.61866 l 1.30933,7.855978 c 2.678734,-0.06009 1.629249,0.989416 2.61866,2.618659 0,2.618658 1.571196,2.618658 2.880525,2.618658 1.437343,0.128016 2.665175,0.04655 3.927989,0 1.262815,0.04655 2.490648,0.128016 3.92799,0 1.30933,0 2.880525,0 2.880525,-2.618658 0.989412,-1.629243 -0.06008,-2.678736 2.61866,-2.618659 l 1.30933,-7.855978 c 0.289738,-1.163358 0.215057,-2.180951 -1.30933,-2.61866 0,3.927987 -0.462309,9.247565 -2.61866,7.855979 -0.89401,2.888036 -3.984012,1.726679 -6.602672,1.726679 -2.61866,0 -6.120347,1.161357 -7.014357,-1.726679 -2.1563511,1.391586 -2.61866,-3.927992 -2.61866,-7.855979 z"
         style="fill:#9acd32;stroke:none" />
      <path
         sodipodi:nodetypes="ccccccccc"
         id="path2818"
         d="m 4.7670787,8.3189245 c -3.4537427,5.6256435 -0.014271,10.0277905 0,15.0378915 -1.2470062,1.892209 -1.6242237,3.548247 0.2279909,5.372914 7.7413994,-0.194234 3.1504803,0.951058 4.192966,4.983359 6.7846114,2.61342 13.2657084,2.68203 19.3994624,0 1.042485,-4.032301 -3.548433,-5.177593 4.192966,-4.983359 1.852215,-1.824667 1.474997,-3.480705 0.22799,-5.372914 0.01427,-5.010101 3.453743,-9.412248 0,-15.0378915 -7.859332,-7.5279312 -20.127991,-6.6329412 -28.2413753,0 z"
         style="fill:#9acd32;stroke:none" />
      <g
         transform="matrix(0.26186597,0,0,0.26186597,-68.382053,-48.56911)"
         style="fill:#000000"
         id="g3189">
        <path
           sodipodi:nodetypes="ccc"
           id="path2830"
           d="m 330.11663,270.49216 c -6.45176,17.71282 -28.38748,13.15075 -30.22307,11.45788 -25.66364,-29.62144 -5.81071,-22.74514 30.22307,-11.45788 z"
           style="fill:#000000;stroke:none" />
        <path
           style="fill:#000000;stroke:none"
           d="m 336.4062,270.49216 c 6.45176,17.71282 29.10948,13.15076 30.22307,11.45788 25.66364,-29.62144 5.81071,-22.74514 -30.22307,-11.45788 z"
           id="path2832"
           sodipodi:nodetypes="ccc" />
      </g>
      <g
         transform="matrix(0.26186597,0,0,0.26186597,-68.382053,-48.56911)"
         style="fill:#000000"
         id="g2990">
        <path
           style="fill:#000000;stroke:none"
           d="m 334.44953,276.97111 1.18811,23.75521 c 3.1683,6.428 6.3366,4.04545 9.5049,0.53989 -6.11932,-5.48609 -8.75315,-14.53583 -10.69301,-24.2951 z"
           id="path2838"
           sodipodi:nodetypes="cccc" />
        <path
           sodipodi:nodetypes="cccc"
           id="path2840"
           d="m 332.0733,276.97111 -1.18811,23.75521 c -3.1683,6.428 -6.3366,4.04545 -9.5049,0.53989 6.11932,-5.48609 8.75315,-14.53583 10.69301,-24.2951 z"
           style="fill:#000000;stroke:none" />
      </g>
      <path
         id="path2896"
         d="M 18.953232,4.5078479 C 15.381156,4.5608463 11.787339,5.6656383 8.1758114,7.6911558 7.0925791,10.108941 6.7384159,12.960573 10.131623,14.245989 c 5.605174,-1.044578 7.055468,2.115369 8.633394,3.723407 2.474567,-2.197697 4.707598,-3.562038 8.567925,-3.911623 2.980862,-1.295271 2.754283,-3.807348 2.266778,-6.4238999 C 26.072195,5.4593671 22.525309,4.4548465 18.953232,4.5078479 z M 7.8648454,16.578232 c -1.0766044,1.449497 -0.748552,1.261725 -0.1309332,2.144028 3.6899278,-0.290993 6.5354438,1.161836 9.6481238,2.643209 0.888188,0.237906 1.37536,0.242205 1.60393,0.09001 0.229043,0.151445 0.717172,0.147506 1.603929,-0.09001 3.112679,-1.481373 5.950013,-2.934202 9.639939,-2.643209 0.61762,-0.882303 0.953856,-0.694531 -0.122749,-2.144028 -3.816082,0.3381 -7.648515,0.628096 -10.646488,3.093292 -0.181215,0.301023 -0.355598,0.594965 -0.474631,0.859247 C 18.866929,20.266457 18.692579,19.972594 18.511334,19.671524 15.513361,17.206328 11.680929,16.916332 7.8648454,16.578232 z M 6.3509329,21.39002 c -0.7032334,2.253848 -1.3519014,3.963641 -1.3911631,4.541737 3.4276241,-0.860523 7.6569612,3.041404 5.7528672,4.206223 -0.674362,0.412538 2.176942,-0.540735 2.757777,-0.114567 l 3.027825,-3.527007 C 10.981854,27.000401 7.94009,26.150331 6.3509329,21.39002 z m 25.0818491,0 c -1.589158,4.760311 -4.630922,5.610381 -10.147306,5.106386 l 3.027825,3.527007 c 0.580835,-0.426168 3.432138,0.527105 2.757775,0.114567 -1.904092,-1.164819 2.317062,-5.066746 5.744684,-4.206223 -0.03927,-0.578096 -0.679745,-2.287889 -1.382978,-4.541737 z"
         style="fill:#adff2f;stroke:none" />
      <path
         sodipodi:nodetypes="cccccccccccccccccccccc"
         id="path2906"
         d="m 5.5370219,10.088866 c -1.1178771,1.01339 -1.8759553,3.187443 -1.5057292,5.16367 0.1320588,2.658393 1.6757225,4.137338 1.5057292,7.250414 0.2771175,-0.98734 0.5725069,-1.975019 1.0147305,-2.962359 -2.735567,-4.030513 -0.8698058,-6.241426 -1.0147305,-9.451725 z m 26.6939611,0 c -0.144924,3.210299 1.72902,5.421212 -1.006548,9.451725 0.442224,0.98734 0.729431,1.975019 1.006548,2.962359 -0.169993,-3.113076 1.381853,-4.592021 1.513913,-7.250414 0.370226,-1.976227 -0.396036,-4.15028 -1.513913,-5.16367 z M 7.1082178,27.003771 c -0.8155897,-0.0069 -1.538269,0.357777 -1.9067116,1.252048 2.1082488,0.138154 3.8451611,-1.220883 4.8117878,0.515548 C 9.6179409,30.314393 8.8474161,32.214879 9.8332607,33.673171 9.814827,32.204372 9.9648876,31.116416 10.725241,29.458765 10.08036,28.064496 8.4675327,27.01522 7.1082178,27.003771 z m 23.5024702,0 c -1.359315,0.01144 -2.972143,1.060725 -3.617025,2.454994 0.760355,1.657651 0.910404,2.745607 0.891981,4.214406 0.985845,-1.458292 0.21532,-2.311314 -0.180032,-3.85434 0.966626,-1.736432 2.703538,-1.424858 4.811787,-1.563012 -0.368442,-0.894271 -1.091123,-1.258916 -1.906711,-1.252048 z"
         style="fill:#556b2f;stroke:none" />
      <path
         sodipodi:nodetypes="cccccccccccccccccccccc"
         id="path2985"
         d="m 11.657071,34.064427 c -0.0024,-0.855462 0.472856,-0.850779 0.916949,-1.979974 l 0.37566,2.325096 c 0.38338,0.705805 1.276534,0.04861 1.612841,0.258442 0.173362,-1.060015 0.831612,-2.542671 1.021596,-3.400594 1.038254,0.255592 0.446013,2.126553 0.598144,3.3805 0.622639,0.230007 1.39772,0.39529 2.020359,0.152473 l 0.72288,-2.844118 0.993893,3.018824 c 0.635815,0.09489 0.824304,0.198165 1.701549,-0.151711 l 0.34724,-3.429384 c 1.225072,1.065832 1.23861,2.333586 1.409734,3.575079 0.589775,0.222202 2.228516,-0.666036 1.430543,-0.325013 l 0.537139,-2.287844 c 0.387381,0.552163 0.685848,1.133971 0.530241,1.867134 2.132421,-0.06337 1.871697,-1.57779 2.269372,-0.970034 1.265832,0.691334 -1.988753,1.717047 -4.056061,2.240868 -1.625351,0.496547 -3.402273,0.348229 -5.409672,0.453749 -1.778965,-0.275828 -3.751998,0.05781 -5.530963,-0.572927 -2.787954,-0.813207 -3.3913028,-1.293851 -3.8086018,-1.61572 -0.00491,-1.813892 0.2277892,-0.684413 1.1207598,0.06722 l 1.196398,0.23797 z"
         style="fill:#556b2f;stroke:none" />
      <path
         sodipodi:nodetypes="ccccccccc"
         id="path3001"
         d="m 25.422555,41.381763 c 0.221232,-0.993579 0.23135,-2.057529 0.960593,-2.881777 l 1.715341,-0.274452 c 0.597382,-2.85156 1.071323,-5.517964 1.30366,-7.821962 l -0.54891,-1.372277 c -0.01597,2.722176 0.02674,5.661594 -1.30366,7.547511 -0.419886,0.352849 -0.767655,0.753771 -1.715342,0.754747 -0.730914,0.398157 -0.796866,0.929304 -0.617525,1.509509 l 0.205843,2.538701 z"
         style="fill:#556b2f;stroke:none" />
      <path
         style="fill:#556b2f;stroke:none"
         d="M 12.352977,41.381763 C 12.131744,40.388184 12.121625,39.324234 11.392384,38.499986 L 9.677042,38.225534 C 9.0796598,35.373974 8.6057196,32.70757 8.3733812,30.403572 L 8.922292,29.031295 c 0.015974,2.722176 -0.026738,5.661594 1.30366,7.547511 0.419887,0.352849 0.767656,0.753771 1.715342,0.754747 0.730916,0.398157 0.796866,0.929304 0.617525,1.509509 l -0.205842,2.538701 z"
         id="path3003"
         sodipodi:nodetypes="ccccccccc" />
      <path
         sodipodi:nodetypes="cccc"
         id="path3005"
         d="m 19.079769,42.582982 c 0.04252,-0.933959 0.889973,-1.420734 2.795107,-1.319911 3.408471,-1.878924 2.268741,0.140604 3.105673,0.465853 -0.389188,1.775015 -2.388369,2.405217 -5.90078,0.854058 z"
         style="fill:#adff2f;stroke:none" />
      <path
         style="fill:#adff2f;stroke:none"
         d="m 18.627151,42.534859 c -0.04153,-0.912246 -0.869277,-1.387695 -2.730104,-1.289217 -3.329204,-1.835228 -2.21598,0.137333 -3.03345,0.455018 0.380138,1.733728 2.332827,2.349289 5.763554,0.834199 z"
         id="path3007"
         sodipodi:nodetypes="cccc" />
      <path
         sodipodi:nodetypes="cccccccccccccccccccc"
         id="path3013"
         d="m 27.606676,35.000688 -4.871573,2.401482 c -2.679637,0.453058 -5.378111,0.02994 -7.878806,-0.411678 L 9.5612684,34.451776 c 0.4837076,0.889251 0.4749956,2.172437 1.7839566,2.401482 l 0.54891,2.538709 0.75475,-1.509502 c 0.925275,-0.07383 1.384601,0.188243 1.578117,0.480295 l 0.75475,2.195639 0.617525,-1.646728 c 0.854939,-0.664267 1.38608,-0.933808 2.058413,-0.137226 l 0.891975,2.538708 0.891978,-2.470091 c 0.483667,-0.790388 1.20973,-0.85358 2.058414,-0.548911 l 1.029204,2.881769 0.34307,-1.989797 c 0.152804,-0.741602 1.710577,-1.005055 2.401478,-1.029206 l 0.205844,1.646735 0.75475,-2.950394 c 0.678783,-0.39616 1.23828,-0.911611 1.372273,-1.85257 z"
         style="fill:#556b2f;stroke:none" />
    </g>
  </g>
</svg>
